<svg xmlns="http://www.w3.org/2000/svg" width="526.6" height="270" fill="none" class="jsx-2180138831" viewBox="0 0 1800 1050"><g class="jsx-2180138831" filter="url(#macbook-filter-1)"><path fill="#FCFCFC" fill-rule="evenodd" d="M231.053 11L1568.95 11C1590.22 11 1597.93 13.2382 1605.71 17.4411C1613.49 21.644 1619.59 27.8115 1623.75 35.6702C1627.91 43.5289 1630.12 51.3239 1630.12 72.8201V976.347C1630.12 997.843 1627.91 1005.64 1623.75 1013.5C1619.59 1021.36 1613.49 1027.52 1605.71 1031.73C1597.93 1035.93 1590.22 1038.17 1568.95 1038.17H231.053C209.781 1038.17 202.068 1035.93 194.291 1031.73C186.514 1027.52 180.411 1021.36 176.252 1013.5C172.093 1005.64 169.878 997.843 169.878 976.347V72.8201C169.878 51.3239 172.093 43.5289 176.252 35.6702C180.411 27.8115 186.514 21.644 194.291 17.4411C202.068 13.2382 209.781 11 231.053 11Z" class="jsx-2180138831" clip-rule="evenodd"/><path fill="url(#macbook-gradient-1)" fill-opacity=".06" fill-rule="evenodd" d="M231.053 11L1568.95 11C1590.22 11 1597.93 13.2382 1605.71 17.4411C1613.49 21.644 1619.59 27.8115 1623.75 35.6702C1627.91 43.5289 1630.12 51.3239 1630.12 72.8201V976.347C1630.12 997.843 1627.91 1005.64 1623.75 1013.5C1619.59 1021.36 1613.49 1027.52 1605.71 1031.73C1597.93 1035.93 1590.22 1038.17 1568.95 1038.17H231.053C209.781 1038.17 202.068 1035.93 194.291 1031.73C186.514 1027.52 180.411 1021.36 176.252 1013.5C172.093 1005.64 169.878 997.843 169.878 976.347V72.8201C169.878 51.3239 172.093 43.5289 176.252 35.6702C180.411 27.8115 186.514 21.644 194.291 17.4411C202.068 13.2382 209.781 11 231.053 11Z" class="jsx-2180138831" clip-rule="evenodd"/></g><path fill="#fff" stroke="#FAFAFA" stroke-width="4" d="M178.867 998.887L178.867 998.887C180.465 1001.91 182.823 1004.29 185.817 1005.91C188.872 1007.56 191.87 1008.34 199.267 1008.34H1600.73C1608.13 1008.34 1611.13 1007.56 1614.18 1005.91C1617.18 1004.29 1619.53 1001.91 1621.13 998.887C1622.76 995.809 1623.53 992.789 1623.53 985.32V70.3728C1623.53 52.5861 1621.7 45.8246 1618.07 38.9743C1614.48 32.1831 1609.19 26.8379 1602.46 23.2025C1595.68 19.5342 1588.98 17.6803 1571.37 17.6803H228.631C211.024 17.6803 204.323 19.5342 197.535 23.2025C190.809 26.8379 185.521 32.1831 181.927 38.9743C178.301 45.8246 176.468 52.5861 176.468 70.3728V985.32C176.468 992.789 177.238 995.809 178.867 998.887Z" class="jsx-2180138831" opacity=".98"/><g class="jsx-2180138831" filter="url(#macbook-filter-2)"><path fill="#000" fill-opacity=".01" fill-rule="evenodd" d="M75.6735 1046.85L1732.42 1046.85C1734.02 1046.85 1735.31 1048.16 1735.31 1049.77C1735.31 1051.16 1734.34 1052.36 1732.98 1052.63L1705.24 1058.2C1704.49 1058.35 1703.73 1058.42 1702.97 1058.42H113.191C112.596 1058.42 112.002 1058.37 111.414 1058.28L75.2337 1052.63C73.6617 1052.39 72.5843 1050.9 72.8271 1049.31C73.0441 1047.89 74.2526 1046.85 75.6735 1046.85V1046.85Z" class="jsx-2180138831" clip-rule="evenodd"/></g><path fill="#F2F2F2" fill-rule="evenodd" d="M0.948242 1037.2H1799.05C1765.09 1051.35 1731.02 1058.42 1696.82 1058.42H101.268C71.9872 1058.42 38.5474 1051.35 0.948242 1037.2Z" class="jsx-2180138831" clip-rule="evenodd"/><path fill="url(#macbook-gradient-2)" fill-opacity=".1" fill-rule="evenodd" d="M0.948242 1037.2H1799.05C1765.09 1051.35 1731.02 1058.42 1696.82 1058.42H101.268C71.9872 1058.42 38.5474 1051.35 0.948242 1037.2Z" class="jsx-2180138831" clip-rule="evenodd"/><path fill="#FBFBFB" fill-rule="evenodd" d="M1.90283 1005.37H1798.1V1037.2H1.90283V1005.37Z" class="jsx-2180138831" clip-rule="evenodd"/><path fill="url(#macbook-gradient-3)" fill-opacity=".08" fill-rule="evenodd" d="M1.90283 1005.37H1798.1V1037.2H1.90283V1005.37Z" class="jsx-2180138831" clip-rule="evenodd"/><path fill="#F9F7F7" fill-rule="evenodd" d="M753.021 1005.37H1046.98C1046.98 1018.16 1036.72 1028.52 1024.07 1028.52H775.927C763.276 1028.52 753.021 1018.16 753.021 1005.37Z" class="jsx-2180138831" clip-rule="evenodd"/><path fill="url(#macbook-gradient-4)" fill-opacity=".08" fill-rule="evenodd" d="M753.021 1005.37H1046.98C1046.98 1018.16 1036.72 1028.52 1024.07 1028.52H775.927C763.276 1028.52 753.021 1018.16 753.021 1005.37Z" class="jsx-2180138831" clip-rule="evenodd"/><mask id="macbook-mask-1" width="1376" height="869" x="212" y="82" class="jsx-2180138831" mask-type="alpha" maskUnits="userSpaceOnUse"><rect width="1374.35" height="868.028" x="212.827" y="82.371" fill="#fff" class="jsx-2180138831"/><rect width="1374.35" height="868.028" x="212.827" y="82.371" stroke="#fff" class="jsx-2180138831"/></mask><g class="jsx-2180138831" mask="url(#macbook-mask-1)"><rect width="1106.19" height="775.775" x="480.813" y="175.152" fill="#F6F6F6" class="jsx-2180138831"/><rect width="267.814" height="868.928" x="213" y="82" fill="#fff" class="jsx-2180138831"/><rect width="1374" height="93.153" x="213" y="82" fill="#007AFF" class="jsx-2180138831"/><rect width="303.657" height="370.61" x="528.39" y="222.729" fill="#fff" stroke="#CBCBCB" stroke-width="2" class="jsx-2180138831" rx="5"/><path fill="#EAEAEA" d="M530.541 229.055C530.541 226.846 532.332 225.055 534.541 225.055H825.896C828.105 225.055 829.896 226.846 829.896 229.055V474.57H530.541V229.055Z" class="jsx-2180138831"/><rect width="182.764" height="23.288" x="555.75" y="504.513" fill="#CFCFCF" class="jsx-2180138831" rx="4"/><rect width="107.137" height="23.288" x="555.75" y="541.108" fill="#CFCFCF" class="jsx-2180138831" rx="4"/><rect width="303.657" height="370.61" x="880.623" y="222.729" fill="#fff" stroke="#CBCBCB" stroke-width="2" class="jsx-2180138831" rx="5"/><path fill="#EAEAEA" d="M882.774 229.055C882.774 226.846 884.565 225.055 886.774 225.055H1178.13C1180.34 225.055 1182.13 226.846 1182.13 229.055V474.57H882.774V229.055Z" class="jsx-2180138831"/><rect width="182.764" height="23.288" x="907.983" y="504.513" fill="#CFCFCF" class="jsx-2180138831" rx="4"/><rect width="107.137" height="23.288" x="907.983" y="541.108" fill="#CFCFCF" class="jsx-2180138831" rx="4"/><rect width="303.657" height="370.61" x="1232.86" y="222.729" fill="#fff" stroke="#CBCBCB" stroke-width="2" class="jsx-2180138831" rx="5"/><path fill="#EAEAEA" d="M1235.01 229.055C1235.01 226.846 1236.8 225.055 1239.01 225.055H1530.36C1532.57 225.055 1534.36 226.846 1534.36 229.055V474.57H1235.01V229.055Z" class="jsx-2180138831"/><rect width="182.764" height="23.288" x="1260.22" y="504.513" fill="#CFCFCF" class="jsx-2180138831" rx="4"/><rect width="107.137" height="23.288" x="1260.22" y="541.108" fill="#CFCFCF" class="jsx-2180138831" rx="4"/><rect width="303.657" height="370.61" x="528.39" y="641.915" fill="#fff" stroke="#CBCBCB" stroke-width="2" class="jsx-2180138831" rx="5"/><path fill="#EAEAEA" d="M530.541 648.242C530.541 646.033 532.332 644.242 534.541 644.242H825.896C828.105 644.242 829.896 646.033 829.896 648.242V893.757H530.541V648.242Z" class="jsx-2180138831"/><rect width="182.764" height="23.288" x="555.75" y="923.699" fill="#CFCFCF" class="jsx-2180138831" rx="4"/><rect width="303.657" height="370.61" x="880.623" y="641.915" fill="#fff" stroke="#CBCBCB" stroke-width="2" class="jsx-2180138831" rx="5"/><path fill="#EAEAEA" d="M882.774 648.242C882.774 646.033 884.565 644.242 886.774 644.242H1178.13C1180.34 644.242 1182.13 646.033 1182.13 648.242V893.757H882.774V648.242Z" class="jsx-2180138831"/><rect width="182.764" height="23.288" x="907.983" y="923.699" fill="#CFCFCF" class="jsx-2180138831" rx="4"/><rect width="303.657" height="370.61" x="1232.86" y="641.915" fill="#fff" stroke="#CBCBCB" stroke-width="2" class="jsx-2180138831" rx="5"/><path fill="#EAEAEA" d="M1235.01 648.242C1235.01 646.033 1236.8 644.242 1239.01 644.242H1530.36C1532.57 644.242 1534.36 646.033 1534.36 648.242V893.757H1235.01V648.242Z" class="jsx-2180138831"/><rect width="182.764" height="23.288" x="1260.22" y="923.699" fill="#CFCFCF" class="jsx-2180138831" rx="4"/><rect width="174.661" height="46.576" x="247.932" y="105.288" fill="#EAEAEA" class="jsx-2180138831" rx="4"/><rect width="197.949" height="29.11" x="247.932" y="256.661" fill="#CFCFCF" class="jsx-2180138831" rx="4"/><rect width="81.508" height="17.466" x="247.932" y="215.907" fill="#EAEAEA" class="jsx-2180138831" rx="4"/><rect width="81.508" height="17.466" x="247.932" y="565.229" fill="#EAEAEA" class="jsx-2180138831" rx="4"/><rect width="197.949" height="29.11" x="247.932" y="309.06" fill="#CFCFCF" class="jsx-2180138831" rx="4"/><rect width="197.949" height="29.11" x="247.932" y="361.458" fill="#CFCFCF" class="jsx-2180138831" rx="4"/><rect width="197.949" height="29.11" x="247.932" y="413.856" fill="#CFCFCF" class="jsx-2180138831" rx="4"/><rect width="197.949" height="29.11" x="247.932" y="466.254" fill="#CFCFCF" class="jsx-2180138831" rx="4"/><rect width="197.949" height="75.686" x="247.932" y="605.983" fill="#CFCFCF" class="jsx-2180138831" rx="4"/><rect width="81.508" height="17.466" x="247.932" y="751.534" fill="#EAEAEA" class="jsx-2180138831" rx="4"/><rect width="197.949" height="101.886" x="247.932" y="792.288" fill="#CFCFCF" class="jsx-2180138831" rx="4"/><circle cx="1534.6" cy="128.577" r="23.288" fill="#EAEAEA" class="jsx-2180138831"/></g><rect width="1375.35" height="869.028" x="212.327" y="81.871" stroke="#E9E9E9" class="jsx-2180138831"/><defs class="jsx-2180138831"><filter id="macbook-filter-1" width="1584.24" height="1151.17" x="56.878" y="0" class="jsx-2180138831" color-interpolation-filters="sRGB" filterUnits="userSpaceOnUse"><feFlood class="jsx-2180138831" flood-opacity="0" result="BackgroundImageFix"/><feColorMatrix class="jsx-2180138831" in="SourceAlpha" type="matrix" values="0 0 0 0 0 0 0 0 0 0 0 0 0 0 0 0 0 0 127 0"/><feOffset class="jsx-2180138831" dx="-51" dy="51"/><feGaussianBlur class="jsx-2180138831" stdDeviation="31"/><feColorMatrix class="jsx-2180138831" type="matrix" values="0 0 0 0 0 0 0 0 0 0 0 0 0 0 0 0 0 0 0.04 0"/><feBlend class="jsx-2180138831" in2="BackgroundImageFix" mode="normal" result="effect1_dropShadow"/><feBlend class="jsx-2180138831" in="SourceGraphic" in2="effect1_dropShadow" mode="normal" result="shape"/></filter><filter id="macbook-filter-2" width="1668.52" height="17.574" x="69.793" y="1046.85" class="jsx-2180138831" color-interpolation-filters="sRGB" filterUnits="userSpaceOnUse"><feFlood class="jsx-2180138831" flood-opacity="0" result="BackgroundImageFix"/><feColorMatrix class="jsx-2180138831" in="SourceAlpha" type="matrix" values="0 0 0 0 0 0 0 0 0 0 0 0 0 0 0 0 0 0 127 0"/><feOffset class="jsx-2180138831" dy="3"/><feGaussianBlur class="jsx-2180138831" stdDeviation="1.5"/><feColorMatrix class="jsx-2180138831" type="matrix" values="0 0 0 0 0 0 0 0 0 0 0 0 0 0 0 0 0 0 0.24 0"/><feBlend class="jsx-2180138831" in2="BackgroundImageFix" mode="normal" result="effect1_dropShadow"/><feBlend class="jsx-2180138831" in="SourceGraphic" in2="effect1_dropShadow" mode="normal" result="shape"/></filter><linearGradient id="macbook-gradient-1" x1="1630.12" x2="169.878" y1="11" y2="11" class="jsx-2180138831" gradientUnits="userSpaceOnUse"><stop class="jsx-2180138831" stop-color="#fff" stop-opacity=".5"/><stop class="jsx-2180138831" offset=".967" stop-color="#fff" stop-opacity=".5"/><stop class="jsx-2180138831" offset="1" stop-opacity=".5"/></linearGradient><linearGradient id="macbook-gradient-2" x1=".948" x2=".948" y1="1037.2" y2="1058.42" class="jsx-2180138831" gradientUnits="userSpaceOnUse"><stop class="jsx-2180138831" stop-color="#fff" stop-opacity=".5"/><stop class="jsx-2180138831" offset="1" stop-opacity=".5"/></linearGradient><linearGradient id="macbook-gradient-3" x1="1798.1" x2="1.903" y1="1005.37" y2="1005.37" class="jsx-2180138831" gradientUnits="userSpaceOnUse"><stop class="jsx-2180138831" stop-opacity=".5"/><stop class="jsx-2180138831" offset=".021" stop-color="#F9F9F9" stop-opacity=".5"/><stop class="jsx-2180138831" offset=".983" stop-color="#fff" stop-opacity=".5"/><stop class="jsx-2180138831" offset="1" stop-opacity=".5"/></linearGradient><linearGradient id="macbook-gradient-4" x1="1046.98" x2="753.021" y1="1005.37" y2="1005.37" class="jsx-2180138831" gradientUnits="userSpaceOnUse"><stop class="jsx-2180138831" stop-opacity=".5"/><stop class="jsx-2180138831" offset=".081" stop-color="#E9E9E9" stop-opacity=".5"/><stop class="jsx-2180138831" offset=".922" stop-color="#fff" stop-opacity=".5"/><stop class="jsx-2180138831" offset="1" stop-opacity=".5"/></linearGradient></defs></svg>